<svg width="594" height="546" viewBox="0 0 594 546" fill="none" xmlns="http://www.w3.org/2000/svg">
<path d="M144 546C106.667 546 74.6667 540.333 48 529C21.3333 517.667 5.66667 497.667 1 469C0.333333 467 -5.96046e-07 465 -5.96046e-07 463C-5.96046e-07 461 -5.96046e-07 459 -5.96046e-07 457C-5.96046e-07 438.333 6.33333 421.667 19 407C31.6667 391.667 47.6667 378.333 67 367C87 355 107.667 344.667 129 336C151 326.667 178 320.333 210 317C242.667 313 273.333 311 302 311C334.667 311 359 313 375 317C385 319.667 390 323.333 390 328C390 331.333 383.333 333 370 333C361.333 333 347.333 334.667 328 338C308.667 340.667 286.333 345 261 351C235.667 356.333 209.667 363 183 371C157 378.333 132.667 386.667 110 396C79.3333 408.667 57 421.333 43 434C29 446 22 457.333 22 468C22 481.333 32.3333 492.333 53 501C74.3333 510.333 101 515 133 515C150.333 515 173.333 511.667 202 505C230.667 498.333 261.333 488.667 294 476C326.667 464 357.333 450 386 434C415.333 418 439.333 400.667 458 382C476.667 362.667 486 342.667 486 322C486 300.667 474 280 450 260C436 248.667 420.333 240 403 234C386.333 227.333 369 223.333 351 222C342.333 221.333 335 219.333 329 216C323.667 212.667 321 209.333 321 206C321 201.333 325 197 333 193C341 188.333 354.333 185.667 373 185C389.667 183.667 407.667 180.333 427 175C447 169.667 464.333 161 479 149C493.667 137 501 120.667 501 100C501 80.6666 492.333 63.6666 475 49C457.667 33.6667 430.667 26 394 26C383.333 26 371.667 27 359 29C346.333 31 333 33.6666 319 37C296.333 42.3333 278.333 50.3333 265 61C252.333 71 246 80.6667 246 90C246 98.6666 251.333 105.333 262 110C270.667 114 279.333 118 288 122C296.667 125.333 307.333 127.667 320 129C324 129 326 131 326 135C326 138.333 323 140 317 140C298.333 140.667 279.333 139.333 260 136C240.667 132 226.333 128 217 124C209 120.667 203.333 116.333 200 111C196.667 105.667 195 100.333 195 95C195 83 200.667 72 212 62C224 51.3333 239 42.3333 257 35C275 27 293.333 21 312 17C326.667 13.6667 347.667 9.99998 375 5.99997C402.333 1.99999 430.333 -8.34465e-06 459 -8.34465e-06C482.333 -8.34465e-06 504.333 2.33332 525 6.99999C545.667 11 562.333 18.3333 575 29C587.667 39.6666 594 55 594 75C594 89 587 104 573 120C559.667 135.333 543 149.667 523 163C503 175.667 483.333 185.333 464 192C470 192.667 480.667 194.667 496 198C511.333 201.333 524.333 207.333 535 216C547.667 226 557 237.667 563 251C569 264.333 572 278.667 572 294C572 326.667 558.667 360.667 532 396C505.333 430.667 468 459.333 420 482C396.667 492.667 369.333 503 338 513C306.667 523 274 531 240 537C206.667 543 174.667 546 144 546Z" fill="url(#paint0_linear_12_817)" fill-opacity="0.1"/>
<defs>
<linearGradient id="paint0_linear_12_817" x1="360.5" y1="-440" x2="360.5" y2="561" gradientUnits="userSpaceOnUse">
<stop stop-color="#0066FF"/>
<stop offset="1" stop-color="white" stop-opacity="0.3"/>
</linearGradient>
</defs>
</svg>
